<?xml version="1.0" encoding="utf-8"?>
<!-- Generator: Adobe Illustrator 19.0.0, SVG Export Plug-In . SVG Version: 6.00 Build 0)  -->
<svg version="1.1" id="Layer_1" xmlns="http://www.w3.org/2000/svg" xmlns:xlink="http://www.w3.org/1999/xlink" x="0px" y="0px"
	 viewBox="-227 356.8 395.3 66.2" style="enable-background:new -227 356.8 395.3 66.2;" xml:space="preserve">
<style type="text/css">
	.st0{fill:#64B3DF;}
</style>
<g>
	<g>
		<path d="M-227,423v-66.2h21.4c8.1,0,13.4,0.3,15.9,1c3.8,1,7,3.2,9.5,6.5c2.6,3.3,3.8,7.6,3.8,12.9c0,4.1-0.7,7.5-2.2,10.2
			c-1.5,2.8-3.3,4.9-5.6,6.5c-2.3,1.6-4.6,2.6-6.9,3.1c-3.2,0.6-7.8,0.9-13.9,0.9h-8.7v25L-227,423L-227,423z M-213.6,368v18.8h7.3
			c5.3,0,8.8-0.3,10.6-1c1.8-0.7,3.2-1.8,4.2-3.2c1-1.5,1.5-3.2,1.5-5.1c0-2.4-0.7-4.4-2.1-6c-1.4-1.6-3.2-2.5-5.4-2.9
			c-1.6-0.3-4.8-0.5-9.6-0.5C-207.2,368-213.6,368-213.6,368z"/>
		<path d="M-112.5,423h-14.5l-5.8-15h-26.4l-5.5,15h-14.2l25.8-66.2h14.1L-112.5,423z M-137.1,396.8l-9.1-24.5l-8.9,24.5H-137.1z"/>
		<path d="M-96.5,423v-27.8l-24.2-38.3h15.7l15.6,26.2l15.3-26.2h15.4l-24.3,38.4V423H-96.5z"/>
	</g>
	<g>
		<path class="st0" d="M-52.3,423v-66.2h49V368H-39v14.7h33.2v11.1H-39v18h37V423L-52.3,423L-52.3,423z"/>
		<path class="st0" d="M9.3,423v-66.2h49V368H22.7v14.7h33.2v11.1H22.7v18h37V423L9.3,423L9.3,423z"/>
		<path class="st0" d="M71,423v-66.2h28.1c7.1,0,12.2,0.6,15.4,1.8s5.8,3.3,7.7,6.3c1.9,3,2.9,6.5,2.9,10.4c0,5-1.5,9.1-4.4,12.3
			c-2.9,3.2-7.3,5.3-13.1,6.1c2.9,1.7,5.3,3.5,7.2,5.6c1.9,2,4.4,5.6,7.6,10.7l8.1,12.9h-16l-9.7-14.4c-3.4-5.1-5.8-8.4-7-9.7
			c-1.3-1.3-2.6-2.3-4-2.8c-1.4-0.5-3.7-0.7-6.7-0.7h-2.7V423L71,423L71,423z M84.3,384.8h9.9c6.4,0,10.4-0.3,12-0.8
			c1.6-0.5,2.8-1.5,3.7-2.8c0.9-1.3,1.4-3,1.4-5c0-2.2-0.6-4-1.8-5.4c-1.2-1.4-2.9-2.2-5-2.6c-1.1-0.2-4.3-0.2-9.7-0.2H84.3
			L84.3,384.8L84.3,384.8z"/>
	</g>
	<path d="M168.3,404.5c0,5.1-1.8,9.5-5.4,13.1c-3.6,3.6-7.9,5.4-13,5.4c-5.1,0-9.4-1.8-13-5.4c-3.6-3.6-5.3-8-5.3-13.1
		c0-5.1,1.8-9.4,5.4-13c3.6-3.6,7.9-5.4,13-5.4c5.1,0,9.4,1.8,13,5.4S168.3,399.4,168.3,404.5L168.3,404.5z M149.8,388.7
		c-4.4,0-8.1,1.6-11.2,4.7c-3.1,3.1-4.6,6.8-4.6,11.2c0,4.4,1.5,8.2,4.6,11.3c3.1,3.1,6.8,4.7,11.2,4.7c4.4,0,8.1-1.6,11.2-4.7
		c3.1-3.1,4.6-6.9,4.6-11.3c0-4.4-1.5-8.1-4.6-11.2C158,390.2,154.2,388.7,149.8,388.7L149.8,388.7z M149.5,394.4
		c2.5,0,4.3,0.2,5.5,0.7c2.1,0.9,3.1,2.6,3.1,5.1c0,1.8-0.7,3.1-2,4c-0.7,0.5-1.7,0.8-2.9,1c1.6,0.3,2.7,0.9,3.5,2
		c0.7,1.1,1.1,2.1,1.1,3.1v1.5c0,0.5,0,1,0,1.5c0,0.5,0.1,0.9,0.2,1.1l0.1,0.3h-3.3c0-0.1,0-0.1-0.1-0.2c0-0.1,0-0.1,0-0.2l-0.1-0.6
		v-1.6c0-2.3-0.6-3.9-1.9-4.6c-0.8-0.4-2.1-0.7-4-0.7H146v8h-3.6v-20.2H149.5z M154.7,400.5c0-1.5-0.5-2.5-1.3-3
		c-0.9-0.5-2.3-0.8-4.3-0.8h-3v7.3h3.2c1.5,0,2.6-0.2,3.4-0.5C154,403.1,154.7,402.1,154.7,400.5L154.7,400.5z"/>
</g>
</svg>
